<?xml version="1.0" encoding="UTF-8"?>
<svg id="Layer_1" xmlns="http://www.w3.org/2000/svg" version="1.1" viewBox="0 0 22 22">
  <!-- Generator: Adobe Illustrator 30.0.0, SVG Export Plug-In . SVG Version: 2.1.1 Build 123)  -->
  <defs>
    <style>
      .st0 {
        display: none;
      }

      .st1 {
        fill: #ff4500;
      }
    </style>
  </defs>
  <g class="st0">
    <path class="st1" d="M-155.82,13.41c-3.96-1.28-20.64-4.78-20.64-4.78h0c-.13-.02-.26-.04-.4-.04-1.21,0-2.2.98-2.2,2.2,0,1.03.7,1.89,1.65,2.13h0s6.01,1.57,6.01,1.57c-11.91,5.44-26.64,18.41-40.55,19.25-8.28.5-17-1.77-25.29-7.58-.57-.4-.65-1.21-.16-1.7,5.32-5.42,21.51-14.87,49.18-15.07,5.64-.04,4.57-4.64,4.26-6.02-.36-1.59-7.59-27.34-17.39-33.27-12.7-7.7-32.78-8.21-38.5-8.19,0-.11-.02-.22-.04-.33-.43-2.11-3.01-3.36-5.77-2.8-2.67.54-4.51,2.58-4.25,4.62-5.73,2.9-21.9,11.33-25.82,16.08-4.79,5.8-6.45,16.15-8.3,28.17-1.65,10.72-2.66,13.03,11.84,19.28,14.49,6.24,22.93,1.85,21.31-13.5-1.19-11.26-5.04-28.57-4.11-34.39.56-3.5,7.35-9.08,11.18-11.98.34-.25.74-.39,1.17-.39,8.07.06,27.02.89,36.26,7.06,7.6,5.08,12.39,20.82,14.32,28.47.17.67-.31,1.33-1,1.38-34.82,2.36-54.1,15.79-54.1,22.87,0,9.87,21.17,16.42,35.63,16.42,10.5,0,22.59-8.5,28.38-12.66.43-.31.98-.43,1.5-.31,25.35,5.41,32.85-.5,33.81-5.57.98-5.14-2.55-9.14-7.98-10.91Z"/>
    <path class="st1" d="M-224.67-5.52c-.46.11-.92.24-1.37.38-1.57.61-2.34,2.38-1.73,3.95.61,1.57,2.38,2.34,3.95,1.73,1.6-.62,3.27-1.01,5.05-1.23,3.19-.47,6.74-.06,9.72-1.83,1.96-1.19,3.27-3.2,3.63-5.42.68-4.23-1.14-9.16-4.57-11.81-1.04-.8-2.95-1.37-5.34-1.62-2.36-.25-9.84-.54-13.01-.37-1.75.1-3.42.26-3.68,1.99-.26,1.67.89,3.24,2.56,3.5.75.12,1.59.02,2.35.08.27.02.48.2.6.43,1.58,3.06,2.17,8.03,2.38,9.43.06.36-.18.71-.53.8ZM-220.05-16.29c.91-.07,4.87-.12,5.99.33,2.91,1.18,4.14,6.73,2.86,8.09-1.56,1.65-6.61,1.39-7.38,1.45-.29.02-.55-.2-.57-.49-.13-1.53-.33-3.04-.56-4.56-.23-1.41-.48-2.78-.82-4.14-.08-.33.15-.65.48-.67Z"/>
  </g>
  <g class="st0">
    <path d="M-38.16,3.81h-14.29c-1.28,0-2.31,1.04-2.31,2.31v9.76c0,1.28,1.04,2.31,2.31,2.31h14.28c1.28,0,2.31-1.04,2.31-2.31V6.12c0-1.28-1.03-2.32-2.31-2.32h0ZM-36.9,15.88c0,.69-.56,1.26-1.26,1.26h-14.29c-.69,0-1.26-.56-1.26-1.26V6.12c0-.69.56-1.26,1.26-1.26h14.28c.69,0,1.26.56,1.26,1.26v9.76h0ZM-36.9,15.88"/>
    <path d="M-42.83,10.88l4.62-4.15c.22-.2.23-.53.04-.75-.2-.22-.53-.23-.75-.04l-6.38,5.72-1.24-1.11s0,0,0-.01c-.03-.03-.05-.05-.09-.07l-5.06-4.53c-.22-.2-.55-.18-.75.04-.2.22-.18.55.04.75l4.68,4.18-4.66,4.36c-.21.2-.22.53-.02.75.11.11.25.17.39.17.13,0,.26-.05.36-.14l4.73-4.42,1.28,1.15c.1.09.23.13.35.13s.25-.05.35-.14l1.32-1.18,4.7,4.47c.1.1.23.14.36.14.14,0,.28-.05.38-.16.2-.21.19-.55-.02-.75l-4.64-4.41ZM-42.83,10.88"/>
  </g>
  <g class="st0">
    <path d="M-21.28,4.62c.61,0,1.16.05,1.66.16.5.11.93.28,1.29.53.36.24.63.57.83.97.2.4.29.9.29,1.5,0,.64-.15,1.18-.44,1.61-.29.43-.72.78-1.29,1.05.79.23,1.37.62,1.76,1.19.39.57.58,1.25.58,2.05,0,.64-.13,1.2-.38,1.67-.25.47-.59.85-1.01,1.15-.42.3-.91.52-1.45.66-.54.14-1.1.21-1.67.21h-6.18V4.62h6ZM-21.64,9.79c.5,0,.91-.12,1.23-.36.32-.24.48-.63.48-1.16,0-.3-.05-.54-.16-.73-.11-.19-.25-.34-.43-.45-.18-.11-.38-.18-.62-.22-.23-.04-.47-.06-.72-.06h-2.63v2.98h2.84ZM-21.48,15.2c.27,0,.54-.03.79-.08.25-.05.47-.14.66-.27.19-.12.34-.29.46-.51.11-.21.17-.49.17-.82,0-.65-.18-1.12-.55-1.4-.37-.28-.86-.42-1.46-.42h-3.05v3.5h3Z"/>
    <path d="M-13.07,14.93c.38.37.93.55,1.64.55.51,0,.95-.13,1.32-.38.37-.26.6-.53.68-.81h2.23c-.36,1.11-.91,1.9-1.64,2.38-.74.48-1.63.71-2.68.71-.73,0-1.38-.12-1.96-.35-.58-.23-1.08-.56-1.48-.99-.4-.43-.72-.94-.94-1.54-.22-.6-.33-1.25-.33-1.96s.11-1.33.34-1.93c.23-.6.55-1.11.96-1.55.42-.43.91-.78,1.49-1.03.58-.25,1.22-.37,1.92-.37.79,0,1.47.15,2.05.46.58.3,1.06.71,1.44,1.22.37.51.65,1.1.81,1.75.17.66.23,1.34.18,2.05h-6.66c.04.82.24,1.42.62,1.79ZM-10.21,10.07c-.3-.33-.77-.5-1.38-.5-.4,0-.74.07-1.01.21-.27.14-.48.31-.64.51-.16.2-.27.42-.34.64-.07.23-.1.43-.12.61h4.13c-.12-.64-.33-1.13-.63-1.46Z"/>
    <rect x="-14.13" y="5.27" width="5.16" height="1.43"/>
  </g>
  <g>
    <path d="M11,4.19c2.22,0,2.48,0,3.36.05.81.04,1.25.17,1.54.29.39.15.66.33.96.62.29.29.47.57.62.96.11.29.25.73.29,1.54.04.88.05,1.14.05,3.36s0,2.48-.05,3.36c-.04.81-.17,1.25-.29,1.54-.15.39-.33.66-.62.96s-.57.47-.96.62c-.29.11-.73.25-1.54.29-.88.04-1.14.05-3.36.05s-2.48,0-3.36-.05c-.81-.04-1.25-.17-1.54-.29-.39-.15-.66-.33-.96-.62-.29-.29-.47-.57-.62-.96-.11-.29-.25-.73-.29-1.54-.04-.88-.05-1.14-.05-3.36s0-2.48.05-3.36c.04-.81.17-1.25.29-1.54.15-.39.33-.66.62-.96s.57-.47.96-.62c.29-.11.73-.25,1.54-.29.88-.04,1.14-.05,3.36-.05M11,2.69c-2.26,0-2.54,0-3.43.05-.88.04-1.49.18-2.02.39-.55.21-1.01.5-1.47.96-.46.46-.75.93-.96,1.47-.21.53-.35,1.13-.39,2.02-.04.89-.05,1.17-.05,3.43s0,2.54.05,3.43c.04.88.18,1.49.39,2.02.21.55.5,1.01.96,1.47.46.46.93.75,1.47.96.53.21,1.13.35,2.02.39.89.04,1.17.05,3.43.05s2.54,0,3.43-.05c.88-.04,1.49-.18,2.02-.39.55-.21,1.01-.5,1.47-.96.46-.46.75-.93.96-1.47.21-.53.35-1.13.39-2.02.04-.89.05-1.17.05-3.43s0-2.54-.05-3.43c-.04-.88-.18-1.49-.39-2.02-.21-.55-.5-1.01-.96-1.47-.46-.46-.93-.75-1.47-.96-.53-.21-1.13-.35-2.02-.39-.89-.04-1.17-.05-3.43-.05h0Z"/>
    <path d="M11,6.73c-2.36,0-4.27,1.91-4.27,4.27s1.91,4.27,4.27,4.27,4.27-1.91,4.27-4.27-1.91-4.27-4.27-4.27ZM11,13.77c-1.53,0-2.77-1.24-2.77-2.77s1.24-2.77,2.77-2.77,2.77,1.24,2.77,2.77-1.24,2.77-2.77,2.77Z"/>
    <circle cx="15.43" cy="6.57" r="1"/>
  </g>
</svg>